<svg xmlns="http://www.w3.org/2000/svg" width="42" height="42" viewBox="0 0 42 42"><g fill="#ebf6f6" stroke="#707070" stroke-width="1"><circle cx="21" cy="21" r="21" stroke="none"/><circle cx="21" cy="21" r="20.5" fill="none"/></g><path d="M1.764,0H16.657a0,0,0,0,1,0,0V3.528a0,0,0,0,1,0,0H1.764A1.764,1.764,0,0,1,0,1.764v0A1.764,1.764,0,0,1,1.764,0Z" transform="translate(28.136 11.716) rotate(135)" fill="#707070"/><path d="M1.764,0H16.657a0,0,0,0,1,0,0V3.528a0,0,0,0,1,0,0H1.764A1.764,1.764,0,0,1,0,1.764v0A1.764,1.764,0,0,1,1.764,0Z" transform="translate(25.642 32.778) rotate(-135)" fill="#707070"/></svg>